<?xml version="1.0" encoding="utf-8"?>
<!-- Generator: Adobe Illustrator 23.0.4, SVG Export Plug-In . SVG Version: 6.00 Build 0)  -->
<svg version="1.1" id="Capa_1" xmlns="http://www.w3.org/2000/svg" xmlns:xlink="http://www.w3.org/1999/xlink" x="0px" y="0px"
	 viewBox="0 0 16 16" style="enable-background:new 0 0 16 16;" xml:space="preserve">
<g>
	<g>
		<path d="M14.6,2H1.4C0.7,2,0,2.6,0,3.4v9.3c0,0.8,0.6,1.4,1.4,1.4h13.1c0.8,0,1.4-0.6,1.4-1.4V3.4C16,2.6,15.3,2,14.6,2z
			 M14.4,2.9L8,9.3L1.6,2.9H14.4z M1,12.5v-9l4.5,4.5L1,12.5z M1.6,13.2l4.5-4.5l1.6,1.6c0.2,0.2,0.5,0.2,0.7,0l1.5-1.5l4.5,4.5H1.6
			z M15,12.5l-4.5-4.5L15,3.6V12.5z"/>
	</g>
</g>
</svg>
