<svg id="instagram" xmlns="http://www.w3.org/2000/svg" xmlns:xlink="http://www.w3.org/1999/xlink" width="19.4" height="19.4" viewBox="0 0 19.4 19.4">
  <defs>
    <clipPath id="clip-path">
      <rect id="Rectangle_796" data-name="Rectangle 796" width="19.4" height="19.4"/>
    </clipPath>
  </defs>
  <g id="Group_1146">
    <g id="Group_3926" data-name="Group 3926">
      <g id="Group_1145" clip-path="url(#clip-path)">
        <path id="Path_222" d="M9.7,0a34.746,34.746,0,0,0-4,.1A10.039,10.039,0,0,0,3.3.5,6.191,6.191,0,0,0,1.6,1.6,6.191,6.191,0,0,0,.5,3.3,6.722,6.722,0,0,0,.1,5.7c0,1-.1,1.4-.1,4a34.746,34.746,0,0,0,.1,4,6.874,6.874,0,0,0,.5,2.4,4.517,4.517,0,0,0,1.1,1.7,4.517,4.517,0,0,0,1.7,1.1,9.3,9.3,0,0,0,2.4.5c1,0,1.4.1,4,.1a34.745,34.745,0,0,0,4-.1,6.874,6.874,0,0,0,2.4-.5A4.832,4.832,0,0,0,19,16.1a10.267,10.267,0,0,0,.5-2.4c0-1,.1-1.4.1-4a34.745,34.745,0,0,0-.1-4A6.874,6.874,0,0,0,19,3.3a4.517,4.517,0,0,0-1.1-1.7A4.517,4.517,0,0,0,16.2.5,10.267,10.267,0,0,0,13.8,0H9.7m0,1.7a32.627,32.627,0,0,1,3.9.1,5.663,5.663,0,0,1,1.8.3,4.129,4.129,0,0,1,1.1.7,2.589,2.589,0,0,1,.7,1.1,5.663,5.663,0,0,1,.3,1.8c0,1,.1,1.3.1,3.9a32.627,32.627,0,0,1-.1,3.9,5.663,5.663,0,0,1-.3,1.8,4.129,4.129,0,0,1-.7,1.1,2.589,2.589,0,0,1-1.1.7,5.663,5.663,0,0,1-1.8.3c-1,0-1.3.1-3.9.1a32.627,32.627,0,0,1-3.9-.1A5.663,5.663,0,0,1,4,17.1a4.129,4.129,0,0,1-1.1-.7,2.589,2.589,0,0,1-.7-1.1,5.663,5.663,0,0,1-.3-1.8c0-1-.1-1.3-.1-3.9a32.627,32.627,0,0,1,.1-3.9,5.663,5.663,0,0,1,.3-1.8,4.129,4.129,0,0,1,.7-1.1A4.129,4.129,0,0,1,4,2.1a5.663,5.663,0,0,1,1.8-.3c1,0,1.3-.1,3.9-.1"/>
      </g>
    </g>
  </g>
  <path id="Path_224" d="M9.7,12.9a3.2,3.2,0,1,1,3.2-3.2,3.159,3.159,0,0,1-3.2,3.2h0m0-8.2a4.951,4.951,0,0,0-5,5,4.951,4.951,0,0,0,5,5,4.951,4.951,0,0,0,5-5,5.015,5.015,0,0,0-5-5h0"/>
  <path id="Path_225" d="M16,4.5a1.2,1.2,0,1,1-1.2-1.2A1.287,1.287,0,0,1,16,4.5"/>
</svg>
