<svg id="linkedin" xmlns="http://www.w3.org/2000/svg" width="18.619" height="18.6" viewBox="0 0 18.619 18.6">
  <path id="Path_218" d="M17.8,0a1.545,1.545,0,0,1,.8,1.6V16.9a1.616,1.616,0,0,1-1.3,1.7H1.5A1.6,1.6,0,0,1,0,17.3V1.5A1.763,1.763,0,0,1,.8,0ZM15.6,15.6V10.3A4.282,4.282,0,0,0,15,8.1a2.445,2.445,0,0,0-1.1-.9,3.138,3.138,0,0,0-3.8,1q0-.15-.3,0c0-.4-.1-.8-.1-1.1H7.5v8.4H10v-5a1.339,1.339,0,0,1,.8-1.4,1.577,1.577,0,0,1,2.1.5,1.232,1.232,0,0,1,.2,1v4.1a1.7,1.7,0,0,0,.1.7A9.345,9.345,0,0,0,15.6,15.6Zm-10.1,0V7.1H3v8.5ZM5.7,4.2A1.538,1.538,0,0,0,4.2,2.7,1.367,1.367,0,0,0,2.8,4.1a1.451,1.451,0,0,0,2.9.1Z"/>
</svg>
