<?xml version="1.0" encoding="utf-8"?>
<!-- Generator: Adobe Illustrator 23.0.4, SVG Export Plug-In . SVG Version: 6.00 Build 0)  -->
<svg version="1.1" id="Capa_1" xmlns="http://www.w3.org/2000/svg" xmlns:xlink="http://www.w3.org/1999/xlink" x="0px" y="0px"
	 viewBox="0 0 16 16" style="enable-background:new 0 0 16 16;" xml:space="preserve">
<g>
	<g>
		<path d="M7.9,0.1c-3.1,0-5.6,2.5-5.6,5.6c0,1,0.3,2.1,0.8,2.9l4.4,7.1c0.1,0.1,0.2,0.2,0.4,0.2c0,0,0,0,0,0c0.2,0,0.3-0.1,0.4-0.2
			l4.3-7.2c0.5-0.9,0.8-1.9,0.8-2.9C13.5,2.6,11,0.1,7.9,0.1z M11.9,8L8,14.6L4,8.1C3.5,7.4,3.3,6.5,3.3,5.6C3.3,3.1,5.3,1,7.9,1
			s4.7,2.1,4.7,4.7C12.6,6.5,12.3,7.3,11.9,8z"/>
	</g>
</g>
<g>
	<g>
		<path d="M7.9,2.9c-1.5,0-2.8,1.3-2.8,2.8c0,1.5,1.2,2.8,2.8,2.8c1.6,0,2.8-1.3,2.8-2.8C10.7,4.1,9.4,2.9,7.9,2.9z M7.9,7.5
			C6.9,7.5,6,6.7,6,5.6c0-1,0.8-1.9,1.9-1.9s1.9,0.8,1.9,1.9C9.8,6.7,9,7.5,7.9,7.5z"/>
	</g>
</g>
</svg>
