<?xml version="1.0" encoding="utf-8"?>
<!-- Generator: Adobe Illustrator 23.0.4, SVG Export Plug-In . SVG Version: 6.00 Build 0)  -->
<svg version="1.1" id="Capa_1" xmlns="http://www.w3.org/2000/svg" xmlns:xlink="http://www.w3.org/1999/xlink" x="0px" y="0px"
	 viewBox="0 0 16 16" style="enable-background:new 0 0 16 16;" xml:space="preserve">
<style type="text/css">
	.st0{stroke:#000000;stroke-width:0.5;stroke-miterlimit:10;}
</style>
<g>
	<path class="st0" d="M12.7,15.7c-0.6,0-1.4-0.2-2.3-0.5c-1.9-0.7-3.9-2.1-5.7-3.9C2.9,9.5,1.5,7.5,0.8,5.6c-0.6-1.7-0.6-3.1,0-3.7
		C0.8,1.8,0.9,1.7,1,1.6c0.6-0.6,1.2-1.3,2.1-1.3c0.6,0,1.2,0.4,1.8,1.1c1.8,2.2,1,3,0,3.9L4.8,5.5C4.7,5.6,4.4,6.3,7,9
		c0.9,0.9,1.6,1.5,2.2,1.9c0.4,0.2,1,0.6,1.3,0.3l0.2-0.2c0.9-0.9,1.7-1.7,3.9,0.1c0.7,0.6,1.1,1.2,1.1,1.8c0,0.9-0.7,1.5-1.3,2.1
		c-0.1,0.1-0.2,0.2-0.3,0.3C13.8,15.6,13.3,15.7,12.7,15.7z M3.1,0.8c-0.6,0-1.2,0.6-1.7,1.1C1.3,2,1.2,2.1,1.1,2.2
		C0.6,2.7,0.7,3.9,1.2,5.4c0.7,1.8,2,3.8,3.8,5.6c1.8,1.8,3.7,3.1,5.6,3.8c1.5,0.6,2.7,0.6,3.2,0.1c0.1-0.1,0.2-0.2,0.3-0.3
		c0.5-0.5,1.1-1.1,1.1-1.7c0-0.4-0.3-0.9-0.9-1.4c-1.8-1.5-2.3-1-3.2-0.1l-0.2,0.2c-0.4,0.4-1.1,0.3-2-0.3c-0.6-0.4-1.4-1.1-2.3-1.9
		C4.5,7.1,3.8,5.8,4.5,5.1l0.2-0.2C5.5,4.1,6,3.6,4.5,1.7C4,1.1,3.6,0.8,3.1,0.8C3.1,0.8,3.1,0.8,3.1,0.8z"/>
</g>
</svg>
