<svg xmlns="http://www.w3.org/2000/svg" width="20.6" height="16.64" viewBox="0 0 20.6 16.64">
  <g id="twitter" transform="translate(0 -0.06)">
    <g id="XMLID_2_">
      <path id="XMLID_3_" d="M6.5,16.7a11.95,11.95,0,0,0,12-11.9V4.1A8.379,8.379,0,0,0,20.6,2a10.884,10.884,0,0,1-2.4.7A4.754,4.754,0,0,0,20.1.4a7.94,7.94,0,0,1-2.7,1,4.258,4.258,0,0,0-6-.2,3.9,3.9,0,0,0-1.4,3,3.751,3.751,0,0,0,.1,1A12.311,12.311,0,0,1,1.4.8,4.252,4.252,0,0,0,2.7,6.4,4.136,4.136,0,0,1,.8,5.9V6a4.173,4.173,0,0,0,3.4,4.1,4.1,4.1,0,0,1-1.1.1,2.2,2.2,0,0,1-.8-.1A4.175,4.175,0,0,0,6.2,13,8.217,8.217,0,0,1,1,14.8a3.4,3.4,0,0,1-1-.1,10.863,10.863,0,0,0,6.5,2"/>
    </g>
  </g>
</svg>
